<svg id="svg" version="1.1" xmlns="http://www.w3.org/2000/svg" xmlns:xlink="http://www.w3.org/1999/xlink" width="400" height="400" viewBox="0, 0, 400,400"><g id="svgg"><path id="path0" d="M152.800 0.828 C 152.329 1.455,151.432 1.712,148.616 2.027 C 146.645 2.247,144.755 2.671,144.416 2.969 C 144.077 3.267,143.170 3.643,142.400 3.805 C 141.630 3.967,140.522 4.437,139.938 4.850 C 139.354 5.262,138.624 5.600,138.316 5.600 C 138.008 5.600,137.145 6.050,136.400 6.600 C 135.655 7.150,134.720 7.600,134.322 7.600 C 133.925 7.600,133.600 7.783,133.600 8.006 C 133.600 8.230,132.931 8.725,132.112 9.106 C 130.321 9.942,130.423 9.857,125.300 14.763 C 123.045 16.923,121.200 18.893,121.200 19.141 C 121.200 19.390,120.840 19.818,120.400 20.093 C 119.960 20.368,119.600 20.895,119.600 21.266 C 119.600 21.636,119.150 22.473,118.600 23.127 C 118.050 23.781,117.600 24.594,117.600 24.934 C 117.600 25.274,117.435 25.655,117.233 25.780 C 116.576 26.186,114.000 31.780,113.999 32.804 C 113.998 33.352,113.638 34.389,113.199 35.110 C 112.759 35.830,112.400 36.988,112.400 37.684 C 112.400 38.380,112.138 40.040,111.818 41.374 C 111.436 42.967,111.196 46.581,111.118 51.900 C 111.009 59.395,111.216 61.469,111.830 59.021 C 112.294 57.172,114.371 56.568,119.627 56.750 C 121.465 56.814,124.273 58.911,124.617 60.477 C 124.753 61.099,125.028 61.506,125.228 61.383 C 125.428 61.259,125.491 61.420,125.368 61.739 C 125.246 62.058,125.338 62.438,125.573 62.583 C 125.868 62.766,126.000 70.022,126.000 86.037 L 126.000 109.227 124.991 111.217 C 122.601 115.934,114.193 117.550,111.506 113.809 C 111.344 113.584,111.209 118.476,111.206 124.680 C 111.201 134.998,111.140 135.995,110.500 136.367 C 110.024 136.644,141.065 136.810,207.600 136.887 L 305.400 137.000 305.301 91.000 C 305.206 46.275,305.181 44.926,304.401 42.338 C 303.961 40.874,303.600 38.638,303.600 37.369 C 303.600 35.822,303.391 34.832,302.964 34.360 C 302.614 33.974,302.154 32.882,301.941 31.935 C 301.728 30.987,301.317 29.939,301.027 29.606 C 300.738 29.273,300.289 28.339,300.030 27.532 C 299.771 26.725,299.298 25.848,298.980 25.583 C 298.661 25.318,298.400 24.830,298.400 24.497 C 298.400 24.164,297.950 23.475,297.400 22.965 C 296.850 22.455,296.400 21.676,296.400 21.233 C 296.400 20.790,296.040 20.235,295.600 20.000 C 295.160 19.765,294.800 19.388,294.800 19.164 C 294.800 18.939,292.955 16.975,290.700 14.799 C 285.489 9.770,285.599 9.862,284.112 9.246 C 283.422 8.961,282.760 8.473,282.641 8.163 C 282.522 7.854,282.087 7.600,281.675 7.600 C 281.262 7.600,280.607 7.250,280.221 6.823 C 279.834 6.395,278.951 5.925,278.259 5.778 C 277.566 5.631,276.716 5.261,276.370 4.956 C 276.023 4.651,274.891 4.243,273.855 4.050 C 272.819 3.856,271.663 3.429,271.286 3.100 C 270.855 2.724,269.287 2.400,267.073 2.228 C 262.882 1.902,262.400 1.751,262.400 0.757 C 262.400 -0.467,153.721 -0.397,152.800 0.828 M289.035 107.506 C 289.777 108.008,289.970 109.526,289.323 109.774 C 287.952 110.300,279.580 110.012,279.357 109.431 C 278.639 107.561,286.733 105.951,289.035 107.506 M289.676 116.209 C 289.791 116.325,289.800 116.865,289.696 117.409 C 289.507 118.400,289.505 118.400,284.580 118.400 C 279.517 118.400,278.424 117.979,279.398 116.404 C 279.651 115.994,289.278 115.812,289.676 116.209 M289.994 124.993 C 290.783 125.944,288.902 126.402,284.274 126.386 C 279.798 126.370,277.565 125.722,279.040 124.866 C 280.263 124.155,289.387 124.261,289.994 124.993 M95.200 153.200 C 95.200 153.420,95.459 153.600,95.776 153.600 C 96.093 153.600,96.464 153.420,96.600 153.200 C 96.736 152.980,96.477 152.800,96.024 152.800 C 95.571 152.800,95.200 152.980,95.200 153.200 M110.300 153.288 C 111.194 153.719,111.200 153.785,111.200 162.690 C 111.200 170.842,111.257 171.600,111.829 171.029 C 112.174 170.683,112.849 170.369,113.329 170.332 C 114.840 170.213,115.358 170.145,117.000 169.851 C 120.268 169.265,123.406 171.117,125.049 174.600 L 125.992 176.600 125.996 199.428 L 126.000 222.257 124.900 224.428 C 122.831 228.513,117.207 230.469,113.851 228.270 C 113.289 227.902,112.565 227.600,112.243 227.600 C 111.922 227.600,111.576 227.285,111.476 226.900 C 111.094 225.440,111.239 369.418,111.621 371.200 C 111.833 372.190,112.109 373.630,112.234 374.400 C 112.810 377.934,118.559 385.600,120.634 385.600 C 120.986 385.600,121.705 385.939,122.232 386.354 C 122.759 386.769,124.048 387.236,125.095 387.393 C 127.882 387.811,128.709 388.309,127.739 388.985 C 126.548 389.814,124.004 390.060,121.015 389.634 C 119.484 389.415,118.149 389.318,118.049 389.418 C 117.441 390.026,119.538 390.221,128.600 390.400 C 134.175 390.510,138.666 390.531,138.582 390.447 C 138.497 390.363,138.609 389.956,138.831 389.542 C 139.223 388.810,140.857 388.793,199.652 388.895 L 260.071 389.000 260.824 389.931 C 261.239 390.442,261.737 390.763,261.931 390.643 C 262.126 390.522,266.780 390.407,272.275 390.387 C 281.636 390.352,282.307 390.301,282.929 389.575 C 283.412 389.011,284.110 388.799,285.496 388.797 C 286.723 388.796,287.827 388.512,288.600 388.000 C 289.260 387.563,290.430 387.201,291.200 387.197 C 291.970 387.192,293.050 386.932,293.600 386.618 C 294.150 386.305,295.140 385.795,295.800 385.486 C 296.460 385.177,297.247 384.626,297.549 384.262 C 297.851 383.898,298.316 383.600,298.582 383.600 C 299.109 383.600,301.156 381.200,301.993 379.600 C 302.281 379.050,302.761 378.456,303.058 378.280 C 303.370 378.096,303.600 377.283,303.600 376.367 C 303.600 375.491,303.915 374.105,304.300 373.287 C 304.960 371.885,305.011 365.510,305.200 262.300 L 305.400 152.800 207.400 152.827 C 136.637 152.847,109.650 152.975,110.300 153.288 M289.652 357.628 C 291.523 358.629,289.757 359.200,284.784 359.200 C 279.786 359.200,278.800 359.034,278.800 358.191 C 278.800 357.182,287.934 356.708,289.652 357.628 M289.526 366.312 L 289.652 367.624 284.531 367.512 C 279.959 367.412,279.395 367.322,279.271 366.677 C 278.930 364.899,279.310 364.769,284.492 364.888 L 289.400 365.000 289.526 366.312 M289.885 374.254 C 290.305 375.517,288.794 376.000,284.420 376.000 C 279.915 376.000,278.806 375.605,279.347 374.193 C 279.644 373.420,289.627 373.477,289.885 374.254 " stroke="none" fill="#1c6167" fill-rule="evenodd"></path><path id="path1" d="M116.200 56.762 C 114.282 57.047,112.269 58.474,111.074 60.394 L 110.200 61.800 110.200 86.423 L 110.200 111.047 111.358 112.423 C 115.526 117.377,122.168 116.789,124.991 111.217 L 126.000 109.227 126.000 86.093 C 126.000 71.614,125.854 62.814,125.610 62.570 C 125.396 62.356,124.991 61.525,124.710 60.723 C 124.084 58.936,121.508 56.800,119.978 56.800 C 119.366 56.800,118.626 56.738,118.333 56.662 C 118.040 56.586,117.080 56.631,116.200 56.762 M94.667 137.067 C 94.520 137.213,94.400 140.813,94.400 145.067 L 94.400 152.800 200.000 152.800 C 284.216 152.800,305.599 152.699,305.595 152.300 C 305.592 152.025,305.686 148.674,305.805 144.853 C 305.957 139.930,305.886 137.744,305.561 137.353 C 305.072 136.763,95.255 136.479,94.667 137.067 M115.285 170.324 C 109.928 172.035,109.904 172.180,110.073 201.601 L 110.200 223.801 111.358 225.630 C 114.583 230.727,122.045 230.064,124.900 224.428 L 126.000 222.257 125.996 199.428 L 125.992 176.600 125.049 174.600 C 123.044 170.348,119.740 168.901,115.285 170.324 M117.700 390.460 C 116.803 391.357,117.037 397.468,118.000 398.293 C 118.440 398.670,118.800 399.208,118.800 399.489 C 118.800 399.889,120.838 400.000,128.200 400.000 C 136.289 400.000,137.600 399.916,137.600 399.400 C 137.600 399.070,137.759 398.800,137.954 398.800 C 138.671 398.800,139.600 396.016,139.600 393.868 C 139.600 390.326,139.827 390.401,129.071 390.395 C 123.972 390.392,119.440 390.292,119.000 390.174 C 118.560 390.056,117.975 390.184,117.700 390.460 M271.760 390.400 C 259.787 390.639,260.213 390.483,260.501 394.507 C 260.647 396.561,260.907 397.462,261.548 398.145 C 262.017 398.643,262.400 399.265,262.400 399.526 C 262.400 399.878,264.819 400.000,271.800 400.000 C 278.316 400.000,281.200 399.866,281.200 399.564 C 281.200 399.324,281.571 398.828,282.023 398.461 C 282.675 397.934,282.894 397.169,283.072 394.797 C 283.433 389.981,283.890 390.158,271.760 390.400 " stroke="none" fill="#1f1d1d" fill-rule="evenodd"></path><path id="path4" d="M131.731 0.565 C 131.473 0.859,130.409 1.228,129.365 1.384 C 128.322 1.541,126.826 2.013,126.040 2.434 C 125.255 2.855,124.318 3.200,123.960 3.200 C 123.601 3.200,122.850 3.560,122.291 4.000 C 121.731 4.440,120.925 4.800,120.499 4.800 C 120.073 4.800,119.402 5.155,119.009 5.590 C 118.616 6.024,117.913 6.499,117.447 6.645 C 116.663 6.890,115.164 7.928,113.521 9.364 C 113.148 9.690,112.334 10.220,111.712 10.542 C 110.592 11.121,105.922 15.870,104.000 18.386 C 103.450 19.106,102.620 20.168,102.155 20.747 C 101.690 21.326,101.190 22.181,101.045 22.647 C 100.899 23.113,100.424 23.816,99.990 24.209 C 99.555 24.602,99.200 25.232,99.200 25.608 C 99.200 25.984,98.829 26.764,98.376 27.340 C 97.923 27.916,97.449 29.020,97.324 29.794 C 97.198 30.567,96.968 31.200,96.812 31.200 C 96.357 31.200,95.600 33.143,95.598 34.319 C 95.596 34.913,95.314 35.938,94.971 36.596 C 93.613 39.201,93.578 43.901,93.689 209.000 L 93.800 373.800 94.700 375.678 C 95.195 376.711,95.600 377.772,95.600 378.037 C 95.600 378.714,98.363 382.800,98.821 382.800 C 99.030 382.800,99.200 383.074,99.200 383.410 C 99.200 383.745,99.650 384.191,100.200 384.400 C 100.750 384.609,101.200 384.974,101.200 385.211 C 101.200 385.447,101.856 385.915,102.658 386.250 C 103.460 386.585,104.352 387.094,104.639 387.382 C 104.926 387.669,105.845 388.029,106.680 388.181 C 107.516 388.334,108.565 388.694,109.010 388.980 C 109.456 389.266,111.121 389.631,112.710 389.791 L 115.600 390.081 115.600 392.830 C 115.600 395.808,117.147 400.000,118.247 400.000 C 119.055 400.000,118.922 399.083,118.000 398.293 C 117.300 397.693,117.200 397.113,117.200 393.636 L 117.200 389.664 116.100 389.445 C 115.495 389.326,114.280 389.107,113.400 388.960 C 112.520 388.813,111.314 388.447,110.720 388.147 C 110.126 387.846,109.245 387.600,108.762 387.600 C 106.188 387.600,98.942 382.739,98.246 380.546 C 98.100 380.084,97.624 379.384,97.190 378.991 C 96.755 378.598,96.400 377.951,96.400 377.553 C 96.400 377.156,95.952 375.429,95.405 373.715 L 94.410 370.600 94.405 206.987 C 94.401 61.602,94.468 43.131,95.010 41.187 C 95.345 39.984,95.861 37.715,96.156 36.144 C 96.452 34.573,96.987 32.868,97.347 32.355 C 97.706 31.842,98.000 31.036,98.000 30.565 C 98.000 30.094,98.335 29.279,98.745 28.754 C 99.155 28.229,99.630 27.353,99.801 26.808 C 99.972 26.262,100.480 25.272,100.930 24.608 C 102.936 21.645,103.200 21.213,103.200 20.889 C 103.200 20.361,112.461 10.800,112.972 10.800 C 113.220 10.800,113.710 10.485,114.062 10.100 C 114.414 9.715,115.633 8.860,116.770 8.200 C 117.908 7.540,119.217 6.685,119.680 6.300 C 120.143 5.915,120.811 5.600,121.164 5.600 C 121.517 5.600,122.652 5.150,123.685 4.600 C 124.718 4.050,125.848 3.600,126.196 3.600 C 126.544 3.600,127.233 3.335,127.728 3.010 C 128.223 2.686,130.062 2.226,131.814 1.987 C 136.398 1.363,136.800 1.250,136.800 0.592 C 136.800 -0.197,132.420 -0.220,131.731 0.565 M263.700 0.500 C 263.795 0.786,265.508 1.282,267.707 1.660 C 269.820 2.022,271.961 2.607,272.464 2.960 C 272.967 3.312,273.833 3.606,274.389 3.612 C 274.945 3.619,276.120 4.068,277.000 4.610 C 277.880 5.152,278.832 5.597,279.116 5.598 C 279.400 5.599,280.120 5.936,280.716 6.347 C 281.312 6.758,282.700 7.656,283.800 8.344 C 287.771 10.827,296.800 19.642,296.800 21.035 C 296.800 21.292,297.085 21.738,297.433 22.027 C 297.781 22.316,298.366 23.128,298.733 23.832 C 300.968 28.120,302.400 31.150,302.400 31.595 C 302.400 31.876,302.738 32.667,303.151 33.353 C 303.565 34.039,304.026 35.770,304.176 37.200 C 304.327 38.630,304.713 40.585,305.035 41.544 C 306.106 44.735,305.875 371.046,304.799 374.106 C 304.360 375.357,304.000 376.732,304.000 377.161 C 304.000 377.591,303.753 378.190,303.452 378.491 C 303.150 378.792,302.625 379.570,302.285 380.220 C 300.734 383.175,295.716 386.859,292.238 387.593 C 291.337 387.784,289.790 388.216,288.800 388.554 C 287.810 388.892,286.109 389.311,285.020 389.484 L 283.040 389.800 283.020 393.735 C 283.002 397.321,282.920 397.735,282.100 398.399 C 280.985 399.302,280.942 400.000,282.000 400.000 C 282.440 400.000,282.800 399.818,282.800 399.596 C 282.800 399.373,283.154 398.428,283.587 397.496 C 284.075 396.446,284.418 394.733,284.487 393.000 L 284.600 390.200 287.381 389.893 C 288.911 389.724,290.535 389.342,290.990 389.043 C 291.445 388.745,292.563 388.375,293.473 388.221 C 294.384 388.068,295.443 387.595,295.826 387.171 C 296.210 386.747,296.805 386.400,297.148 386.400 C 297.491 386.400,298.138 386.045,298.586 385.612 C 299.034 385.179,300.030 384.224,300.800 383.491 C 302.501 381.870,304.400 379.171,304.400 378.373 C 304.400 378.051,304.805 377.071,305.300 376.194 L 306.200 374.600 306.200 207.000 C 306.200 50.979,306.154 39.303,305.529 38.000 C 305.160 37.230,304.736 35.790,304.587 34.800 C 304.438 33.810,303.974 32.439,303.558 31.753 C 303.141 31.067,302.800 30.146,302.800 29.707 C 302.800 29.267,302.451 28.464,302.025 27.922 C 301.598 27.380,301.128 26.454,300.980 25.863 C 300.832 25.273,300.480 24.657,300.198 24.495 C 299.917 24.333,299.406 23.525,299.063 22.700 C 298.721 21.875,298.271 21.200,298.064 21.200 C 297.856 21.200,297.575 20.755,297.439 20.212 C 297.302 19.668,296.833 19.032,296.395 18.797 C 295.958 18.563,295.600 18.132,295.600 17.840 C 295.600 17.023,286.312 8.400,285.433 8.400 C 285.191 8.400,284.782 8.063,284.524 7.650 C 284.267 7.238,283.589 6.784,283.018 6.640 C 282.447 6.497,281.624 6.024,281.190 5.590 C 280.755 5.155,280.068 4.800,279.661 4.800 C 279.255 4.800,278.529 4.459,278.049 4.042 C 277.568 3.625,276.505 3.160,275.687 3.008 C 274.869 2.857,273.910 2.472,273.555 2.154 C 273.200 1.836,271.969 1.464,270.819 1.328 C 269.628 1.187,268.640 0.848,268.522 0.540 C 268.240 -0.195,263.455 -0.235,263.700 0.500 M139.955 390.255 C 139.588 390.697,139.453 391.727,139.540 393.421 C 139.667 395.896,138.811 398.800,137.954 398.800 C 137.759 398.800,137.600 399.070,137.600 399.400 C 137.600 400.527,138.599 399.973,139.700 398.234 C 140.575 396.852,140.801 396.015,140.806 394.148 C 140.809 392.857,140.962 391.564,141.144 391.277 C 141.417 390.847,151.989 390.811,200.238 391.077 L 259.000 391.400 259.262 394.334 C 259.457 396.513,259.739 397.497,260.362 398.159 C 260.823 398.650,261.200 399.265,261.200 399.526 C 261.200 399.787,261.470 400.000,261.800 400.000 C 262.662 400.000,262.539 399.200,261.509 398.103 C 260.770 397.317,260.600 396.626,260.519 394.077 C 260.464 392.385,260.415 390.894,260.410 390.764 C 260.364 389.662,257.112 389.600,199.430 389.600 C 145.342 389.600,140.453 389.654,139.955 390.255 " stroke="none" fill="#131212" fill-rule="evenodd"></path></g></svg>